<svg width="443" height="55" viewBox="0 0 443 55" fill="none" xmlns="http://www.w3.org/2000/svg">
<path d="M20.536 3.96C23.92 3.96 29.896 4.608 29.896 15.624C29.896 26.784 25.576 27.936 21.76 27.936H19.672V3.96H20.536ZM28.96 28.008C30.4 28.008 44.656 26.784 44.656 16.056C44.656 3.384 32.488 3.312 22.48 3.312H0.664V3.888C3.832 3.888 4.84 8.784 4.84 13.248V44.136C4.84 49.032 3.76 53.352 0.664 53.352V54H22.48C34.936 54 48.04 53.712 48.04 41.112C48.04 28.8 33.64 28.008 28.96 28.008ZM20.68 53.352H19.672V28.584H21.184C25.936 28.584 32.416 28.8 32.416 40.824C32.416 53.568 26.944 53.352 20.68 53.352ZM91.2383 47.592V20.088L75.6863 21.528V22.104C79.3583 22.536 79.0703 23.472 79.0703 27.864V45.36C78.3503 48.456 76.4063 49.392 74.3903 49.392C70.7183 49.392 69.7103 47.448 69.7103 43.416V20.088L53.2943 21.528V22.104C57.4703 22.68 57.3263 23.328 57.3263 27.648V43.632C57.3263 52.272 63.3023 54.648 68.9903 54.648C74.9663 54.648 78.4943 51.048 79.0703 47.304V53.208C79.0703 53.208 79.1423 54.864 81.0863 54.576L94.9103 52.704V52.128C91.8863 51.768 91.2383 51.048 91.2383 47.592ZM119.267 49.392C115.091 49.392 113.651 47.448 113.651 43.416V21.384H122.939V20.736H113.651V9.576L101.555 11.088V20.736H97.0186V21.384H101.555V43.632C101.555 52.344 108.035 54.648 113.723 54.648C119.051 54.648 123.227 51.336 124.091 47.52L123.659 47.232C122.795 48.24 121.355 49.392 119.267 49.392ZM142.408 45.864V0.287996L126.352 3.312V3.888C129.304 4.968 130.168 5.976 130.168 8.496V45.864C130.168 49.608 130.096 52.632 127.36 53.424V54H145.36V53.424C142.768 52.704 142.408 49.824 142.408 45.864ZM168.363 20.088C159.507 20.088 150.219 25.2 150.219 37.44C150.219 47.16 157.851 54.648 167.283 54.648C176.283 54.648 181.539 49.536 182.475 44.208L181.827 44.064C180.387 50.184 175.563 52.344 171.963 51.552C167.139 50.472 163.683 47.592 163.683 36.648H183.267C183.267 23.112 175.995 20.088 168.363 20.088ZM163.683 36C163.683 29.088 165.339 20.736 168.651 20.736C171.891 20.736 172.827 26.928 172.827 36H163.683ZM219.491 21.744C217.619 20.088 214.595 19.656 212.579 20.592C210.419 21.6 208.259 22.464 203.147 30.168V20.088L187.091 23.112V23.688C190.043 24.768 190.907 25.776 190.907 28.296V45.864C190.907 49.536 190.835 52.632 188.099 53.424V54H206.099V53.424C203.507 52.704 203.147 49.824 203.147 45.864V31.536C206.099 27.072 208.403 26.568 208.403 27.504C208.403 29.16 209.339 30.672 210.707 31.968C213.587 34.344 217.763 34.056 220.211 31.248C222.659 28.512 222.299 24.192 219.491 21.744ZM265.716 3.96C269.1 3.96 275.076 4.608 275.076 15.624C275.076 26.784 270.756 27.936 266.94 27.936H264.852V3.96H265.716ZM274.14 28.008C275.58 28.008 289.836 26.784 289.836 16.056C289.836 3.384 277.668 3.312 267.66 3.312H245.844V3.888C249.012 3.888 250.02 8.784 250.02 13.248V44.136C250.02 49.032 248.94 53.352 245.844 53.352V54H267.66C280.116 54 293.22 53.712 293.22 41.112C293.22 28.8 278.82 28.008 274.14 28.008ZM265.86 53.352H264.852V28.584H266.364C271.116 28.584 277.596 28.8 277.596 40.824C277.596 53.568 272.124 53.352 265.86 53.352ZM314.674 45.864V0.287996L298.618 3.312V3.888C301.57 4.968 302.434 5.976 302.434 8.496V45.864C302.434 49.608 302.362 52.632 299.626 53.424V54H317.626V53.424C315.034 52.704 314.674 49.824 314.674 45.864ZM341.42 47.52C340.628 49.248 339.62 50.256 338.396 50.256C335.516 50.256 335.588 45.504 335.588 45.504C335.588 42.12 335.516 37.728 341.42 36.432V47.52ZM358.988 49.032C358.628 50.256 356.828 50.256 356.828 50.256C353.372 50.4 353.372 45.216 353.372 45.216V34.488C353.372 25.992 348.116 20.088 338.684 20.088C338.684 20.088 335.156 19.872 331.916 21.6C329.252 23.04 327.956 24.336 327.092 25.272C325.868 26.568 325.508 28.728 326.228 30.6C327.308 33.192 330.26 34.416 332.852 33.408C335.516 32.256 336.74 29.376 335.66 26.712C335.084 25.416 334.292 24.408 333.068 23.976C330.62 23.112 332.204 22.176 332.204 22.176C337.172 19.584 341.42 23.616 341.42 31.104V35.712C328.604 38.736 322.772 40.104 322.772 47.304C322.772 53.424 329.036 54.648 331.772 54.648C336.884 54.648 340.556 51.912 341.492 48.168C342.14 54.648 350.132 54.648 350.132 54.648C354.668 54.648 358.412 52.56 359.42 49.392L358.988 49.032ZM383.568 20.088C369.96 20.088 363.912 27.36 363.912 37.224C363.912 47.376 371.76 54.648 381.192 54.648C390.192 54.648 395.16 49.104 395.16 44.64L394.656 44.424C393.648 46.872 390.984 48.24 387.384 48.24C381.336 48.24 378.024 44.064 378.024 36.288C378.024 26.64 379.824 20.736 383.928 20.736C388.248 20.736 389.184 23.184 388.392 23.472C387.168 23.976 386.232 24.912 385.656 26.352C384.576 29.088 386.016 32.184 388.824 33.12C391.56 34.2 394.728 32.76 395.664 29.952C396.24 28.008 395.808 25.776 394.584 24.48C392.856 22.536 389.184 20.088 383.568 20.088ZM434.045 47.88L421.949 32.472C428.429 25.776 437.861 21.312 441.965 21.312V20.736H422.381V21.312C426.917 21.312 426.053 27.288 422.885 30.6L414.461 39.24C414.461 39.24 416.477 42.408 418.637 45.504C423.461 52.704 424.109 54 429.077 54H442.397V53.352C439.157 53.352 436.421 51.192 434.045 47.88ZM413.165 45.864V0.287996L397.109 3.312V3.888C400.061 4.968 400.925 5.976 400.925 8.496V45.864C400.925 49.608 400.853 52.632 398.117 53.424V54H416.117V53.424C413.525 52.704 413.165 49.824 413.165 45.864Z" fill="black"/>
</svg>
