<svg width="360" height="37" viewBox="0 0 360 37" fill="none" xmlns="http://www.w3.org/2000/svg">
<path d="M24.2656 23.2969C23.4219 23.5469 22.8047 23.8438 22.4141 24.1875C22.0234 24.5156 21.8047 24.8594 21.7578 25.2188C21.6953 25.6406 21.6172 26.1875 21.5234 26.8594C21.4453 27.5312 21.3594 28.2188 21.2656 28.9219C21.1719 29.625 21.0859 30.2891 21.0078 30.9141C20.9297 31.5234 20.875 31.9766 20.8438 32.2734C19.6562 33.2266 18.5938 33.9922 17.6562 34.5703C16.7188 35.1484 15.8594 35.6016 15.0781 35.9297C14.2969 36.2422 13.5703 36.4531 12.8984 36.5625C12.2266 36.6719 11.5781 36.7266 10.9531 36.7266C9.60938 36.7266 8.3125 36.4609 7.0625 35.9297C5.82812 35.3828 4.73438 34.6016 3.78125 33.5859C2.84375 32.5703 2.08594 31.3203 1.50781 29.8359C0.945312 28.3516 0.664062 26.6719 0.664062 24.7969C0.664062 23.3125 0.835938 21.8281 1.17969 20.3438C1.52344 18.8594 2.00781 17.4375 2.63281 16.0781C3.25781 14.7188 4 13.4531 4.85938 12.2812C5.73438 11.1094 6.70312 10.1016 7.76562 9.25781C9.09375 8.17969 10.5703 7.32813 12.1953 6.70312C13.8359 6.07812 15.6562 5.76562 17.6562 5.76562C18.1406 5.76562 18.6797 5.82031 19.2734 5.92969C19.8672 6.03906 20.4609 6.19531 21.0547 6.39844C21.6641 6.60156 22.2344 6.85156 22.7656 7.14844C23.3125 7.44531 23.7891 7.78125 24.1953 8.15625C24.2891 8.23437 24.2422 8.44531 24.0547 8.78906C23.8672 9.11719 23.6172 9.48438 23.3047 9.89062C23.0078 10.2813 22.6875 10.6641 22.3438 11.0391C22.0156 11.4141 21.7422 11.6875 21.5234 11.8594L20.6328 11.6719C19.8984 10.625 19.0391 9.85156 18.0547 9.35156C17.0859 8.85156 15.8672 8.60156 14.3984 8.60156C13.7734 8.60156 13.0469 8.80469 12.2188 9.21094C11.4062 9.60156 10.5859 10.1484 9.75781 10.8516C9.02344 11.4609 8.35156 12.2734 7.74219 13.2891C7.14844 14.3047 6.63281 15.4141 6.19531 16.6172C5.77344 17.8047 5.44531 19.0234 5.21094 20.2734C4.97656 21.5234 4.85938 22.6953 4.85938 23.7891C4.85938 25.4609 5.10156 26.9062 5.58594 28.125C6.07031 29.3438 6.6875 30.3516 7.4375 31.1484C8.20312 31.9297 9.05469 32.5156 9.99219 32.9062C10.9297 33.2812 11.8594 33.4688 12.7812 33.4688C13.5312 33.4688 14.2734 33.3672 15.0078 33.1641C15.7578 32.9453 16.4062 32.6328 16.9531 32.2266L17.8906 25.2188C17.9062 25.0625 17.875 24.9062 17.7969 24.75C17.7344 24.5938 17.5312 24.4375 17.1875 24.2812C16.8438 24.125 16.3281 23.9688 15.6406 23.8125C14.9688 23.6562 14.0469 23.4844 12.875 23.2969L13.0156 22.0547H24.4062L24.2656 23.2969ZM42.7109 18.1875C42.7109 18.625 42.6562 19.0859 42.5469 19.5703C42.4531 20.0391 42.25 20.5391 41.9375 21.0703C41.625 21.5859 41.1797 22.1328 40.6016 22.7109C40.0234 23.2734 39.2656 23.8594 38.3281 24.4688C37.3906 25.0781 36.2422 25.7109 34.8828 26.3672C33.5234 27.0078 31.8984 27.6719 30.0078 28.3594C30.1016 29.1875 30.2734 29.9453 30.5234 30.6328C30.7891 31.3203 31.0938 31.9062 31.4375 32.3906C31.7969 32.875 32.1797 33.25 32.5859 33.5156C32.9922 33.7812 33.3984 33.9141 33.8047 33.9141C34.1328 33.9141 34.5312 33.8672 35 33.7734C35.4844 33.6797 36.0312 33.5 36.6406 33.2344C37.2656 32.9688 37.9688 32.6016 38.75 32.1328C39.5312 31.6484 40.3906 31.0312 41.3281 30.2812C41.4219 30.3281 41.5078 30.4062 41.5859 30.5156C41.6797 30.625 41.7656 30.7422 41.8438 30.8672C41.9219 30.9922 41.9844 31.1094 42.0312 31.2188L42.1719 31.4766C40.8906 32.5859 39.75 33.5 38.75 34.2188C37.75 34.9219 36.8438 35.4766 36.0312 35.8828C35.2344 36.2891 34.5 36.5703 33.8281 36.7266C33.1719 36.8828 32.5391 36.9609 31.9297 36.9609C31.3672 36.9609 30.7344 36.8125 30.0312 36.5156C29.3438 36.2344 28.6953 35.7812 28.0859 35.1562C27.4766 34.5156 26.9609 33.6875 26.5391 32.6719C26.1172 31.6406 25.9062 30.3828 25.9062 28.8984C25.9062 27.6797 26.0547 26.4922 26.3516 25.3359C26.6484 24.1641 27.0703 23.0469 27.6172 21.9844C28.1797 20.9219 28.8594 19.9219 29.6562 18.9844C30.4688 18.0312 31.3828 17.1484 32.3984 16.3359C32.7422 16.0547 33.1484 15.7812 33.6172 15.5156C34.0859 15.2344 34.5859 14.9922 35.1172 14.7891C35.6484 14.5703 36.1875 14.3984 36.7344 14.2734C37.2969 14.1328 37.8438 14.0625 38.375 14.0625C39.1094 14.0625 39.75 14.1875 40.2969 14.4375C40.8438 14.6719 41.2969 14.9844 41.6562 15.375C42.0156 15.7656 42.2812 16.2109 42.4531 16.7109C42.625 17.1953 42.7109 17.6875 42.7109 18.1875ZM33.7812 18.0234C33.3125 18.4922 32.8594 19.0391 32.4219 19.6641C31.9844 20.2734 31.5859 20.9375 31.2266 21.6562C30.8828 22.3594 30.5938 23.1094 30.3594 23.9062C30.1406 24.6875 30.0078 25.4844 29.9609 26.2969C31.8516 25.5312 33.3438 24.8438 34.4375 24.2344C35.5469 23.6094 36.3828 23.0234 36.9453 22.4766C37.5078 21.9141 37.8672 21.3828 38.0234 20.8828C38.1797 20.3672 38.2578 19.8359 38.2578 19.2891C38.2578 18.8516 38.2031 18.4766 38.0938 18.1641C37.9844 17.8359 37.8359 17.5703 37.6484 17.3672C37.4609 17.1484 37.25 16.9922 37.0156 16.8984C36.7812 16.8047 36.5391 16.7578 36.2891 16.7578C36.0391 16.7578 35.6641 16.8594 35.1641 17.0625C34.6797 17.2656 34.2188 17.5859 33.7812 18.0234ZM67.3672 34.0078C66.6641 34.4297 65.9766 34.8203 65.3047 35.1797C64.6484 35.5391 64.0312 35.8516 63.4531 36.1172C62.875 36.3828 62.3516 36.5859 61.8828 36.7266C61.4141 36.8828 61.0156 36.9609 60.6875 36.9609C60.1406 36.9609 59.7031 36.7109 59.375 36.2109C59.0625 35.7266 58.9062 35.0625 58.9062 34.2188C58.9062 33.9375 58.9531 33.4453 59.0469 32.7422C59.1562 32.0234 59.2812 31.2031 59.4219 30.2812C59.5781 29.3438 59.7422 28.3516 59.9141 27.3047C60.1016 26.2578 60.2656 25.2578 60.4062 24.3047C60.5625 23.3516 60.6875 22.4922 60.7812 21.7266C60.8906 20.9609 60.9453 20.4062 60.9453 20.0625C60.9453 18.9688 60.8359 18.2031 60.6172 17.7656C60.3984 17.3281 59.9766 17.1094 59.3516 17.1094C59.1484 17.1094 58.8125 17.2188 58.3438 17.4375C57.8906 17.6406 57.375 17.9609 56.7969 18.3984C56.2188 18.8359 55.6094 19.3906 54.9688 20.0625C54.3438 20.7188 53.7656 21.5 53.2344 22.4062C52.7812 23.1562 52.4219 24.0547 52.1562 25.1016C51.8906 26.1484 51.625 27.4297 51.3594 28.9453C51.2344 29.6484 51.1328 30.2812 51.0547 30.8438C50.9766 31.4062 50.9141 31.9375 50.8672 32.4375C50.8359 32.9219 50.8125 33.3828 50.7969 33.8203C50.7969 34.2422 50.8047 34.6719 50.8203 35.1094C50.6172 35.2188 50.3281 35.3594 49.9531 35.5312C49.5781 35.7031 49.1875 35.875 48.7812 36.0469C48.3906 36.2188 48.0078 36.3828 47.6328 36.5391C47.2734 36.7109 47 36.8516 46.8125 36.9609L45.9922 36.1875C46.2109 35.1406 46.4219 34.0312 46.625 32.8594C46.8438 31.6875 47.0469 30.5156 47.2344 29.3438C47.4219 28.1562 47.5938 27 47.75 25.875C47.9219 24.75 48.0625 23.7109 48.1719 22.7578C48.2969 21.8047 48.3906 20.9688 48.4531 20.25C48.5312 19.5156 48.5703 18.9688 48.5703 18.6094C48.5703 18.25 48.5469 17.9688 48.5 17.7656C48.4688 17.5469 48.4141 17.3906 48.3359 17.2969C48.2734 17.1875 48.1875 17.1172 48.0781 17.0859C47.9688 17.0547 47.8438 17.0391 47.7031 17.0391C47.5625 17.0391 47.3516 17.0703 47.0703 17.1328C46.8047 17.1953 46.5391 17.2656 46.2734 17.3438C45.9609 17.4375 45.625 17.5391 45.2656 17.6484L44.8906 16.5C45.5469 16.2188 46.2422 15.9375 46.9766 15.6562C47.7109 15.3594 48.4062 15.0938 49.0625 14.8594C49.7188 14.625 50.2969 14.4375 50.7969 14.2969C51.2969 14.1406 51.6484 14.0625 51.8516 14.0625C52.0703 14.0625 52.2422 14.1016 52.3672 14.1797C52.4922 14.2422 52.5859 14.3672 52.6484 14.5547C52.7266 14.7422 52.7734 15.0078 52.7891 15.3516C52.8203 15.6953 52.8359 16.1484 52.8359 16.7109C52.8359 16.8828 52.8281 17.1016 52.8125 17.3672C52.7969 17.6172 52.7812 17.8906 52.7656 18.1875C52.75 18.4844 52.7266 18.7734 52.6953 19.0547C52.6641 19.3359 52.6406 19.5703 52.625 19.7578C53.4688 18.7578 54.3203 17.8984 55.1797 17.1797C56.0391 16.4609 56.875 15.875 57.6875 15.4219C58.5156 14.9531 59.3125 14.6094 60.0781 14.3906C60.8594 14.1719 61.6016 14.0625 62.3047 14.0625C62.7891 14.0625 63.2188 14.1328 63.5938 14.2734C63.9844 14.3984 64.3047 14.6172 64.5547 14.9297C64.8203 15.2266 65.0156 15.6328 65.1406 16.1484C65.2812 16.6484 65.3516 17.2734 65.3516 18.0234C65.3516 18.5703 65.2969 19.2422 65.1875 20.0391C65.0938 20.8359 64.9688 21.6875 64.8125 22.5938C64.6562 23.5 64.4844 24.4375 64.2969 25.4062C64.125 26.375 63.9609 27.2969 63.8047 28.1719C63.6484 29.0469 63.5156 29.8438 63.4062 30.5625C63.3125 31.2812 63.2656 31.8594 63.2656 32.2969C63.2656 32.8281 63.3359 33.1953 63.4766 33.3984C63.6172 33.5859 63.8281 33.6797 64.1094 33.6797C64.4688 33.6797 64.8594 33.6172 65.2812 33.4922C65.7188 33.3672 66.2656 33.1719 66.9219 32.9062L67.3672 34.0078ZM82.4375 32.9531C81.6406 33.5781 80.8359 34.1406 80.0234 34.6406C79.2266 35.125 78.4688 35.5391 77.75 35.8828C77.0469 36.2266 76.3984 36.4922 75.8047 36.6797C75.2109 36.8672 74.7266 36.9609 74.3516 36.9609C73.9297 36.9609 73.5234 36.8438 73.1328 36.6094C72.7422 36.375 72.3906 36.0547 72.0781 35.6484C71.7812 35.2266 71.5391 34.7266 71.3516 34.1484C71.1641 33.5703 71.0703 32.9375 71.0703 32.25C71.0703 31.9531 71.0781 31.6562 71.0938 31.3594C71.1094 31.0625 71.125 30.7578 71.1406 30.4453C71.1719 30.1172 71.2031 29.7734 71.2344 29.4141C71.2812 29.0547 71.3359 28.6562 71.3984 28.2188L73.1562 17.1328H69.875L69.4531 16.3359L71.9609 14.7891H73.5312L73.6719 13.9688C73.7656 13.3281 73.8594 12.8047 73.9531 12.3984C74.0625 11.9922 74.1797 11.6641 74.3047 11.4141C74.4453 11.1484 74.5938 10.9375 74.75 10.7812C74.9062 10.6094 75.0859 10.4453 75.2891 10.2891L78.3594 8.4375L79.0156 9.02344C78.9062 9.16406 78.7891 9.41406 78.6641 9.77344C78.5547 10.0859 78.4219 10.5312 78.2656 11.1094C78.125 11.6875 77.9766 12.4609 77.8203 13.4297L77.6094 14.7891H83.3984L83.9141 15.4922C83.7578 15.7109 83.5391 15.9609 83.2578 16.2422C82.9766 16.5078 82.6797 16.7734 82.3672 17.0391C82.0703 17.3047 81.7812 17.5469 81.5 17.7656C81.2188 17.9688 81.0078 18.1094 80.8672 18.1875C80.6797 17.75 80.3203 17.4688 79.7891 17.3438C79.2578 17.2031 78.4375 17.1328 77.3281 17.1328H77.2344L75.6875 27.1172C75.6406 27.4141 75.5938 27.7344 75.5469 28.0781C75.5156 28.4062 75.4844 28.7266 75.4531 29.0391C75.4375 29.3359 75.4219 29.6172 75.4062 29.8828C75.4062 30.1484 75.4062 30.3594 75.4062 30.5156C75.4062 31.4844 75.5703 32.1953 75.8984 32.6484C76.2422 33.0859 76.6328 33.3047 77.0703 33.3047C77.6172 33.3047 78.2734 33.1875 79.0391 32.9531C79.8047 32.7188 80.7734 32.3359 81.9453 31.8047L82.4375 32.9531ZM94.7422 34.0078C93.2734 34.8828 91.9766 35.5938 90.8516 36.1406C89.7422 36.6875 88.8125 36.9609 88.0625 36.9609C87.5312 36.9609 87.0938 36.7109 86.75 36.2109C86.4219 35.7266 86.2578 35.0625 86.2578 34.2188C86.2578 33.75 86.3125 33.0938 86.4219 32.25C86.5469 31.4062 86.6875 30.4766 86.8438 29.4609C87.0156 28.4297 87.2031 27.3594 87.4062 26.25C87.6094 25.1406 87.7891 24.0859 87.9453 23.0859C88.1172 22.0859 88.2578 21.1953 88.3672 20.4141C88.4922 19.6328 88.5547 19.0469 88.5547 18.6562C88.5547 18.2969 88.5312 18.0156 88.4844 17.8125C88.4375 17.5938 88.375 17.4375 88.2969 17.3438C88.2188 17.2344 88.1172 17.1641 87.9922 17.1328C87.8672 17.1016 87.7344 17.0859 87.5938 17.0859C87.4688 17.0859 87.2812 17.1172 87.0312 17.1797C86.7812 17.2266 86.5234 17.2891 86.2578 17.3672C85.9609 17.4453 85.6406 17.5391 85.2969 17.6484L84.9453 16.5469C85.6016 16.25 86.2812 15.9531 86.9844 15.6562C87.7031 15.3594 88.375 15.0938 89 14.8594C89.6406 14.625 90.2109 14.4375 90.7109 14.2969C91.2109 14.1406 91.5781 14.0625 91.8125 14.0625C92.25 14.0625 92.5625 14.2109 92.75 14.5078C92.9531 14.8047 93.0547 15.3125 93.0547 16.0312C93.0547 16.4844 92.9922 17.1406 92.8672 18C92.7578 18.8594 92.6172 19.8125 92.4453 20.8594C92.2734 21.9062 92.0781 23.0078 91.8594 24.1641C91.6562 25.3203 91.4688 26.4219 91.2969 27.4688C91.125 28.5156 90.9766 29.4688 90.8516 30.3281C90.7422 31.1875 90.6875 31.8438 90.6875 32.2969C90.6875 32.7812 90.7344 33.1328 90.8281 33.3516C90.9375 33.5703 91.125 33.6797 91.3906 33.6797C91.875 33.6797 92.3281 33.6172 92.75 33.4922C93.1719 33.3672 93.7031 33.1719 94.3438 32.9062L94.7422 34.0078ZM95.3281 6.42188C95.3281 6.85938 95.25 7.30469 95.0938 7.75781C94.9531 8.19531 94.7422 8.60156 94.4609 8.97656C94.1797 9.33594 93.8359 9.63281 93.4297 9.86719C93.0234 10.0859 92.5625 10.1953 92.0469 10.1953C91.4531 10.1953 91 10.0391 90.6875 9.72656C90.375 9.39844 90.2188 8.96875 90.2188 8.4375C90.2188 8.01562 90.2969 7.58594 90.4531 7.14844C90.6094 6.69531 90.8281 6.28906 91.1094 5.92969C91.3906 5.55469 91.7344 5.25 92.1406 5.01562C92.5469 4.76562 93.0078 4.64062 93.5234 4.64062C94.1172 4.64062 94.5625 4.80469 94.8594 5.13281C95.1719 5.46094 95.3281 5.89062 95.3281 6.42188ZM119.328 34.1016C118.062 34.9453 116.938 35.6328 115.953 36.1641C114.969 36.6953 114.148 36.9609 113.492 36.9609C113.18 36.9609 112.859 36.8281 112.531 36.5625C112.219 36.2969 111.945 35.8828 111.711 35.3203C111.477 34.7422 111.297 34 111.172 33.0938C111.047 32.1719 111.016 31.0625 111.078 29.7656C110.453 30.8125 109.789 31.7734 109.086 32.6484C108.383 33.5234 107.648 34.2812 106.883 34.9219C106.133 35.5625 105.359 36.0625 104.562 36.4219C103.766 36.7812 102.969 36.9609 102.172 36.9609C101.812 36.9609 101.422 36.8359 101 36.5859C100.578 36.3516 100.18 35.9922 99.8047 35.5078C99.4297 35.0234 99.1172 34.4219 98.8672 33.7031C98.6172 32.9844 98.4922 32.1484 98.4922 31.1953C98.4922 30.7266 98.5312 30.1484 98.6094 29.4609C98.7031 28.7578 98.8125 28.0078 98.9375 27.2109C99.0625 26.4141 99.1953 25.5938 99.3359 24.75C99.4766 23.8906 99.6094 23.0781 99.7344 22.3125C99.8594 21.5312 99.9609 20.8281 100.039 20.2031C100.133 19.5625 100.18 19.0469 100.18 18.6562C100.18 18.2969 100.156 18.0156 100.109 17.8125C100.062 17.5938 99.9922 17.4375 99.8984 17.3438C99.8203 17.2344 99.7188 17.1641 99.5938 17.1328C99.4844 17.1016 99.3594 17.0859 99.2188 17.0859C99.0781 17.0859 98.875 17.1172 98.6094 17.1797C98.3594 17.2266 98.1016 17.2891 97.8359 17.3672C97.5391 17.4453 97.2109 17.5391 96.8516 17.6484L96.5469 16.5469C97.2031 16.25 97.8906 15.9531 98.6094 15.6562C99.3438 15.3594 100.031 15.0938 100.672 14.8594C101.328 14.625 101.906 14.4375 102.406 14.2969C102.922 14.1406 103.289 14.0625 103.508 14.0625C103.961 14.0625 104.266 14.2109 104.422 14.5078C104.578 14.8047 104.656 15.3125 104.656 16.0312C104.656 16.4844 104.609 17.0781 104.516 17.8125C104.422 18.5469 104.305 19.3516 104.164 20.2266C104.023 21.0859 103.875 21.9844 103.719 22.9219C103.562 23.8438 103.414 24.7422 103.273 25.6172C103.133 26.4766 103.016 27.2734 102.922 28.0078C102.828 28.7422 102.781 29.3359 102.781 29.7891C102.781 31.0859 102.93 32.0391 103.227 32.6484C103.539 33.2422 103.938 33.5391 104.422 33.5391C104.719 33.5391 105.109 33.4062 105.594 33.1406C106.078 32.8594 106.625 32.4141 107.234 31.8047C107.844 31.1797 108.508 30.375 109.227 29.3906C109.961 28.4062 110.719 27.2031 111.5 25.7812C111.594 25.125 111.695 24.4688 111.805 23.8125C111.93 23.1406 112.039 22.4922 112.133 21.8672C112.242 21.2422 112.328 20.6562 112.391 20.1094C112.469 19.5625 112.508 19.0781 112.508 18.6562C112.508 18.2969 112.484 18.0156 112.438 17.8125C112.406 17.5938 112.352 17.4375 112.273 17.3438C112.195 17.2344 112.102 17.1641 111.992 17.1328C111.898 17.1016 111.781 17.0859 111.641 17.0859C111.5 17.0859 111.312 17.1172 111.078 17.1797C110.844 17.2266 110.609 17.2891 110.375 17.3672C110.094 17.4453 109.805 17.5391 109.508 17.6484L109.133 16.5469C109.789 16.25 110.469 15.9531 111.172 15.6562C111.875 15.3594 112.539 15.0938 113.164 14.8594C113.789 14.625 114.344 14.4375 114.828 14.2969C115.312 14.1406 115.672 14.0625 115.906 14.0625C116.344 14.0625 116.633 14.2109 116.773 14.5078C116.914 14.8047 116.984 15.3125 116.984 16.0312C116.984 16.4844 116.938 17.0703 116.844 17.7891C116.75 18.4922 116.633 19.2656 116.492 20.1094C116.367 20.9375 116.219 21.8047 116.047 22.7109C115.891 23.6172 115.742 24.5 115.602 25.3594C115.477 26.2031 115.367 27 115.273 27.75C115.18 28.4844 115.133 29.1094 115.133 29.625C115.133 31.0469 115.234 32.0781 115.438 32.7188C115.656 33.3594 115.961 33.6797 116.352 33.6797C116.758 33.6797 117.156 33.6328 117.547 33.5391C117.938 33.4297 118.414 33.2578 118.977 33.0234L119.328 34.1016ZM154.227 34.0078C152.773 34.8516 151.469 35.5547 150.312 36.1172C149.172 36.6797 148.234 36.9609 147.5 36.9609C147.047 36.9609 146.648 36.7109 146.305 36.2109C145.977 35.7266 145.812 35.0625 145.812 34.2188C145.812 33.9375 145.859 33.4609 145.953 32.7891C146.062 32.1016 146.195 31.3047 146.352 30.3984C146.508 29.4766 146.68 28.5 146.867 27.4688C147.055 26.4219 147.227 25.4062 147.383 24.4219C147.539 23.4375 147.664 22.5234 147.758 21.6797C147.867 20.8203 147.922 20.1328 147.922 19.6172C147.922 18.7266 147.828 18.0938 147.641 17.7188C147.453 17.3438 147.219 17.1562 146.938 17.1562C146.688 17.1562 146.359 17.2422 145.953 17.4141C145.562 17.5859 145.117 17.8672 144.617 18.2578C144.133 18.6328 143.609 19.125 143.047 19.7344C142.5 20.3438 141.945 21.0781 141.383 21.9375C141.055 22.4375 140.781 22.9453 140.562 23.4609C140.344 23.9609 140.156 24.5 140 25.0781C139.844 25.6406 139.703 26.25 139.578 26.9062C139.469 27.5625 139.352 28.2891 139.227 29.0859C139.008 30.5078 138.867 31.7031 138.805 32.6719C138.758 33.6406 138.758 34.4531 138.805 35.1094C138.586 35.2188 138.281 35.3594 137.891 35.5312C137.516 35.7031 137.125 35.875 136.719 36.0469C136.312 36.2188 135.922 36.3828 135.547 36.5391C135.172 36.7109 134.883 36.8516 134.68 36.9609L133.883 36.1875C134.227 34.5938 134.555 32.9609 134.867 31.2891C135.18 29.6016 135.453 28.0156 135.688 26.5312C135.938 25.0469 136.133 23.7266 136.273 22.5703C136.414 21.3984 136.484 20.5234 136.484 19.9453C136.484 18.8984 136.375 18.1719 136.156 17.7656C135.938 17.3594 135.625 17.1562 135.219 17.1562C135.047 17.1562 134.773 17.2422 134.398 17.4141C134.023 17.5859 133.586 17.8594 133.086 18.2344C132.602 18.6094 132.078 19.1016 131.516 19.7109C130.953 20.3047 130.398 21.0312 129.852 21.8906C129.539 22.3594 129.273 22.8516 129.055 23.3672C128.836 23.8672 128.641 24.4141 128.469 25.0078C128.297 25.5859 128.141 26.2109 128 26.8828C127.875 27.5547 127.742 28.2891 127.602 29.0859C127.367 30.5078 127.211 31.7031 127.133 32.6719C127.055 33.6406 127.031 34.4531 127.062 35.1094C126.859 35.2188 126.57 35.3594 126.195 35.5312C125.836 35.7031 125.453 35.875 125.047 36.0469C124.656 36.2188 124.273 36.3828 123.898 36.5391C123.539 36.7109 123.266 36.8516 123.078 36.9609L122.234 36.1875C122.562 34.5312 122.875 32.8125 123.172 31.0312C123.484 29.25 123.766 27.5547 124.016 25.9453C124.266 24.3359 124.461 22.8906 124.602 21.6094C124.758 20.3125 124.836 19.3281 124.836 18.6562C124.836 18.2969 124.812 18.0156 124.766 17.8125C124.719 17.5938 124.648 17.4297 124.555 17.3203C124.477 17.1953 124.383 17.1172 124.273 17.0859C124.164 17.0547 124.047 17.0391 123.922 17.0391C123.766 17.0391 123.547 17.0703 123.266 17.1328C123 17.1953 122.734 17.2656 122.469 17.3438C122.156 17.4375 121.82 17.5391 121.461 17.6484L121.156 16.5C121.812 16.2188 122.5 15.9375 123.219 15.6562C123.938 15.3594 124.609 15.0938 125.234 14.8594C125.875 14.625 126.445 14.4375 126.945 14.2969C127.445 14.1406 127.805 14.0625 128.023 14.0625C128.258 14.0625 128.445 14.1016 128.586 14.1797C128.742 14.2578 128.859 14.3984 128.938 14.6016C129.016 14.7891 129.062 15.0625 129.078 15.4219C129.109 15.7656 129.125 16.2109 129.125 16.7578C129.125 16.9141 129.117 17.1094 129.102 17.3438C129.086 17.5781 129.062 17.8359 129.031 18.1172C129.016 18.3828 128.992 18.6641 128.961 18.9609C128.93 19.2422 128.906 19.5078 128.891 19.7578C129.812 18.6953 130.672 17.8047 131.469 17.0859C132.281 16.3516 133.047 15.7656 133.766 15.3281C134.484 14.875 135.172 14.5547 135.828 14.3672C136.484 14.1641 137.133 14.0625 137.773 14.0625C138.352 14.0625 138.836 14.1797 139.227 14.4141C139.617 14.6328 139.93 14.9375 140.164 15.3281C140.398 15.7031 140.562 16.1328 140.656 16.6172C140.766 17.1016 140.82 17.6016 140.82 18.1172C140.82 18.3516 140.812 18.5703 140.797 18.7734C140.797 18.9766 140.781 19.2266 140.75 19.5234C141.656 18.5234 142.484 17.6797 143.234 16.9922C144 16.2891 144.719 15.7266 145.391 15.3047C146.062 14.8672 146.695 14.5547 147.289 14.3672C147.883 14.1641 148.477 14.0625 149.07 14.0625C149.523 14.0625 149.938 14.1406 150.312 14.2969C150.703 14.4375 151.031 14.6719 151.297 15C151.578 15.3281 151.797 15.7578 151.953 16.2891C152.109 16.8047 152.188 17.4375 152.188 18.1875C152.188 18.7812 152.133 19.4844 152.023 20.2969C151.93 21.0938 151.805 21.9453 151.648 22.8516C151.508 23.7578 151.352 24.6797 151.18 25.6172C151.008 26.5391 150.844 27.4297 150.688 28.2891C150.547 29.1328 150.422 29.9062 150.312 30.6094C150.219 31.2969 150.172 31.8594 150.172 32.2969C150.172 32.8281 150.25 33.1875 150.406 33.375C150.562 33.5469 150.773 33.6328 151.039 33.6328C151.492 33.6328 151.93 33.5781 152.352 33.4688C152.789 33.3438 153.328 33.1562 153.969 32.9062L154.227 34.0078ZM188.469 26.3906C188.469 27.9219 188.156 29.3203 187.531 30.5859C186.922 31.8516 186.094 32.9375 185.047 33.8438C184 34.75 182.773 35.4609 181.367 35.9766C179.961 36.4766 178.477 36.7266 176.914 36.7266C176.602 36.7266 176.219 36.7188 175.766 36.7031C175.328 36.6875 174.852 36.6562 174.336 36.6094C173.836 36.5781 173.312 36.5391 172.766 36.4922C172.219 36.4609 171.688 36.4219 171.172 36.375C169.953 36.2656 168.664 36.1406 167.305 36H165.805L165.969 34.7578C166.953 34.5391 167.727 34.3047 168.289 34.0547C168.867 33.7891 169.172 33.5469 169.203 33.3281L172.648 8.22656C171.977 8.30469 171.359 8.39844 170.797 8.50781C170.234 8.61719 169.68 8.73438 169.133 8.85938V7.24219C170.57 6.83594 172.141 6.49219 173.844 6.21094C175.547 5.91406 177.484 5.76562 179.656 5.76562C182.422 5.76562 184.555 6.28125 186.055 7.3125C187.57 8.34375 188.328 9.78125 188.328 11.625C188.328 12.4375 188.195 13.2266 187.93 13.9922C187.68 14.7422 187.312 15.4453 186.828 16.1016C186.359 16.7422 185.789 17.3203 185.117 17.8359C184.461 18.3359 183.727 18.7422 182.914 19.0547C183.727 19.2266 184.477 19.5312 185.164 19.9688C185.852 20.3906 186.438 20.9297 186.922 21.5859C187.406 22.2266 187.781 22.9531 188.047 23.7656C188.328 24.5781 188.469 25.4531 188.469 26.3906ZM178.25 20.9062C177.562 20.9062 176.961 20.9453 176.445 21.0234C175.945 21.0859 175.453 21.1562 174.969 21.2344L173.305 33.3281C173.273 33.4375 173.367 33.5938 173.586 33.7969C174.148 34.0781 174.797 34.2734 175.531 34.3828C176.281 34.4766 176.984 34.5234 177.641 34.5234C178.641 34.5234 179.539 34.3203 180.336 33.9141C181.133 33.5078 181.812 32.9688 182.375 32.2969C182.938 31.6094 183.367 30.8281 183.664 29.9531C183.961 29.0781 184.109 28.1641 184.109 27.2109C184.109 26.4297 184 25.6641 183.781 24.9141C183.578 24.1641 183.242 23.4922 182.773 22.8984C182.32 22.3047 181.719 21.8281 180.969 21.4688C180.234 21.0938 179.328 20.9062 178.25 20.9062ZM178.906 7.89844H177.781C177.438 7.89844 177.109 7.90625 176.797 7.92188L175.297 18.8906H176.047C177.047 18.8906 178.023 18.8047 178.977 18.6328C179.93 18.4453 180.773 18.125 181.508 17.6719C182.258 17.2031 182.852 16.5859 183.289 15.8203C183.742 15.0391 183.969 14.0547 183.969 12.8672C183.969 11.9297 183.805 11.1484 183.477 10.5234C183.148 9.88281 182.734 9.375 182.234 9C181.75 8.60937 181.203 8.32812 180.594 8.15625C180 7.98438 179.438 7.89844 178.906 7.89844ZM205.672 24.375C205.672 21.9844 205.258 20.1562 204.43 18.8906C203.602 17.6094 202.484 16.9688 201.078 16.9688C200.375 16.9688 199.742 17.1172 199.18 17.4141C198.633 17.6953 198.148 18.0781 197.727 18.5625C197.32 19.0312 196.969 19.5859 196.672 20.2266C196.391 20.8672 196.156 21.5391 195.969 22.2422C195.781 22.9453 195.648 23.6641 195.57 24.3984C195.492 25.1328 195.453 25.8281 195.453 26.4844C195.453 27.5312 195.578 28.5156 195.828 29.4375C196.078 30.3594 196.414 31.1719 196.836 31.875C197.258 32.5625 197.75 33.1094 198.312 33.5156C198.891 33.9219 199.508 34.125 200.164 34.125C200.836 34.125 201.438 33.9766 201.969 33.6797C202.5 33.3672 202.969 32.9609 203.375 32.4609C203.781 31.9453 204.125 31.3594 204.406 30.7031C204.703 30.0312 204.945 29.3359 205.133 28.6172C205.32 27.8984 205.453 27.1719 205.531 26.4375C205.625 25.7031 205.672 25.0156 205.672 24.375ZM209.727 22.8984C209.727 23.9453 209.602 25.0078 209.352 26.0859C209.117 27.1484 208.766 28.1875 208.297 29.2031C207.828 30.2031 207.25 31.1641 206.562 32.0859C205.891 32.9922 205.117 33.8047 204.242 34.5234C203.836 34.8516 203.398 35.1641 202.93 35.4609C202.461 35.7578 201.977 36.0156 201.477 36.2344C200.992 36.4688 200.5 36.6484 200 36.7734C199.516 36.8984 199.039 36.9609 198.57 36.9609C197.43 36.9609 196.414 36.7266 195.523 36.2578C194.633 35.8047 193.875 35.1797 193.25 34.3828C192.641 33.5703 192.172 32.6172 191.844 31.5234C191.531 30.4141 191.375 29.2188 191.375 27.9375C191.375 26.8125 191.469 25.7344 191.656 24.7031C191.859 23.6562 192.18 22.6484 192.617 21.6797C193.055 20.6953 193.633 19.7578 194.352 18.8672C195.07 17.9766 195.945 17.125 196.977 16.3125C197.773 15.6875 198.672 15.1562 199.672 14.7188C200.688 14.2812 201.695 14.0625 202.695 14.0625C203.914 14.0625 204.969 14.2812 205.859 14.7188C206.75 15.1562 207.477 15.7656 208.039 16.5469C208.617 17.3281 209.039 18.2578 209.305 19.3359C209.586 20.4141 209.727 21.6016 209.727 22.8984ZM226.297 24.375C226.297 21.9844 225.883 20.1562 225.055 18.8906C224.227 17.6094 223.109 16.9688 221.703 16.9688C221 16.9688 220.367 17.1172 219.805 17.4141C219.258 17.6953 218.773 18.0781 218.352 18.5625C217.945 19.0312 217.594 19.5859 217.297 20.2266C217.016 20.8672 216.781 21.5391 216.594 22.2422C216.406 22.9453 216.273 23.6641 216.195 24.3984C216.117 25.1328 216.078 25.8281 216.078 26.4844C216.078 27.5312 216.203 28.5156 216.453 29.4375C216.703 30.3594 217.039 31.1719 217.461 31.875C217.883 32.5625 218.375 33.1094 218.938 33.5156C219.516 33.9219 220.133 34.125 220.789 34.125C221.461 34.125 222.062 33.9766 222.594 33.6797C223.125 33.3672 223.594 32.9609 224 32.4609C224.406 31.9453 224.75 31.3594 225.031 30.7031C225.328 30.0312 225.57 29.3359 225.758 28.6172C225.945 27.8984 226.078 27.1719 226.156 26.4375C226.25 25.7031 226.297 25.0156 226.297 24.375ZM230.352 22.8984C230.352 23.9453 230.227 25.0078 229.977 26.0859C229.742 27.1484 229.391 28.1875 228.922 29.2031C228.453 30.2031 227.875 31.1641 227.188 32.0859C226.516 32.9922 225.742 33.8047 224.867 34.5234C224.461 34.8516 224.023 35.1641 223.555 35.4609C223.086 35.7578 222.602 36.0156 222.102 36.2344C221.617 36.4688 221.125 36.6484 220.625 36.7734C220.141 36.8984 219.664 36.9609 219.195 36.9609C218.055 36.9609 217.039 36.7266 216.148 36.2578C215.258 35.8047 214.5 35.1797 213.875 34.3828C213.266 33.5703 212.797 32.6172 212.469 31.5234C212.156 30.4141 212 29.2188 212 27.9375C212 26.8125 212.094 25.7344 212.281 24.7031C212.484 23.6562 212.805 22.6484 213.242 21.6797C213.68 20.6953 214.258 19.7578 214.977 18.8672C215.695 17.9766 216.57 17.125 217.602 16.3125C218.398 15.6875 219.297 15.1562 220.297 14.7188C221.312 14.2812 222.32 14.0625 223.32 14.0625C224.539 14.0625 225.594 14.2812 226.484 14.7188C227.375 15.1562 228.102 15.7656 228.664 16.5469C229.242 17.3281 229.664 18.2578 229.93 19.3359C230.211 20.4141 230.352 21.6016 230.352 22.8984ZM242.398 2.78906C242.398 3.39844 242.352 4.15625 242.258 5.0625C242.164 5.96875 242.039 6.99219 241.883 8.13281C241.742 9.25781 241.57 10.4688 241.367 11.7656C241.164 13.0625 240.953 14.3906 240.734 15.75C240.516 17.1094 240.289 18.4844 240.055 19.875C239.836 21.2656 239.625 22.6172 239.422 23.9297L244.109 20.4141C245.188 19.6016 246.062 18.9141 246.734 18.3516C247.422 17.7891 247.852 17.3438 248.023 17.0156C248.211 16.6719 248.117 16.4297 247.742 16.2891C247.383 16.1484 246.703 16.0938 245.703 16.125L245.586 14.9766C246.617 14.8359 247.625 14.6719 248.609 14.4844C249.594 14.2969 250.578 14.2031 251.562 14.2031C251.969 14.2031 252.297 14.2344 252.547 14.2969C252.797 14.3438 252.992 14.4297 253.133 14.5547C253.273 14.6797 253.367 14.8359 253.414 15.0234C253.477 15.2109 253.508 15.4375 253.508 15.7031C253.508 15.9375 253.336 16.2656 252.992 16.6875C252.664 17.0938 252.172 17.5781 251.516 18.1406C250.875 18.7031 250.094 19.3203 249.172 19.9922C248.25 20.6484 247.203 21.3359 246.031 22.0547L243.242 23.7656C243.648 24.25 244.047 24.8281 244.438 25.5C244.844 26.1719 245.242 26.875 245.633 27.6094C246.039 28.3438 246.43 29.0781 246.805 29.8125C247.18 30.5312 247.547 31.1797 247.906 31.7578C248.266 32.3203 248.609 32.7812 248.938 33.1406C249.281 33.5 249.609 33.6797 249.922 33.6797C250.281 33.6797 250.688 33.6562 251.141 33.6094C251.594 33.5469 252.117 33.3516 252.711 33.0234L253.227 34.0547C252.195 34.9297 251.211 35.625 250.273 36.1406C249.352 36.6562 248.57 36.9141 247.93 36.9141C247.383 36.9141 246.844 36.6562 246.312 36.1406C245.797 35.6406 245.289 34.9922 244.789 34.1953C244.305 33.3984 243.82 32.5156 243.336 31.5469C242.867 30.5781 242.406 29.6328 241.953 28.7109C241.5 27.7891 241.055 26.9453 240.617 26.1797C240.18 25.3984 239.758 24.8125 239.352 24.4219C239.164 25.7031 238.992 26.9219 238.836 28.0781C238.68 29.2188 238.555 30.2578 238.461 31.1953C238.367 32.1328 238.312 32.9375 238.297 33.6094C238.281 34.2656 238.32 34.75 238.414 35.0625C238.195 35.1719 237.891 35.3125 237.5 35.4844C237.125 35.6562 236.727 35.8359 236.305 36.0234C235.898 36.2109 235.508 36.3828 235.133 36.5391C234.758 36.7109 234.477 36.8516 234.289 36.9609L233.398 36.1875C233.461 35.7344 233.57 35.0078 233.727 34.0078C233.883 32.9922 234.07 31.8047 234.289 30.4453C234.523 29.0703 234.773 27.5781 235.039 25.9688C235.305 24.3438 235.57 22.6875 235.836 21C236.102 19.3125 236.359 17.6406 236.609 15.9844C236.859 14.3281 237.078 12.7891 237.266 11.3672C237.469 9.92969 237.625 8.65625 237.734 7.54688C237.859 6.4375 237.922 5.58594 237.922 4.99219C237.922 4.60156 237.898 4.29687 237.852 4.07812C237.805 3.85938 237.734 3.69531 237.641 3.58594C237.547 3.47656 237.43 3.41406 237.289 3.39844C237.148 3.36719 236.984 3.35156 236.797 3.35156C236.672 3.35156 236.469 3.39063 236.188 3.46875C235.922 3.53125 235.648 3.60156 235.367 3.67969C235.039 3.77344 234.688 3.875 234.312 3.98438L233.961 2.83594C234.617 2.53906 235.312 2.25 236.047 1.96875C236.781 1.67187 237.477 1.40625 238.133 1.17188C238.805 0.9375 239.398 0.75 239.914 0.609375C240.43 0.453125 240.797 0.375 241.016 0.375C241.234 0.375 241.43 0.398438 241.602 0.445312C241.773 0.492188 241.914 0.601563 242.023 0.773438C242.148 0.929688 242.242 1.17188 242.305 1.5C242.367 1.8125 242.398 2.24219 242.398 2.78906ZM286.25 26.3906C286.25 27.9219 285.938 29.3203 285.312 30.5859C284.703 31.8516 283.875 32.9375 282.828 33.8438C281.781 34.75 280.555 35.4609 279.148 35.9766C277.742 36.4766 276.258 36.7266 274.695 36.7266C274.383 36.7266 274 36.7188 273.547 36.7031C273.109 36.6875 272.633 36.6562 272.117 36.6094C271.617 36.5781 271.094 36.5391 270.547 36.4922C270 36.4609 269.469 36.4219 268.953 36.375C267.734 36.2656 266.445 36.1406 265.086 36H263.586L263.75 34.7578C264.734 34.5391 265.508 34.3047 266.07 34.0547C266.648 33.7891 266.953 33.5469 266.984 33.3281L270.43 8.22656C269.758 8.30469 269.141 8.39844 268.578 8.50781C268.016 8.61719 267.461 8.73438 266.914 8.85938V7.24219C268.352 6.83594 269.922 6.49219 271.625 6.21094C273.328 5.91406 275.266 5.76562 277.438 5.76562C280.203 5.76562 282.336 6.28125 283.836 7.3125C285.352 8.34375 286.109 9.78125 286.109 11.625C286.109 12.4375 285.977 13.2266 285.711 13.9922C285.461 14.7422 285.094 15.4453 284.609 16.1016C284.141 16.7422 283.57 17.3203 282.898 17.8359C282.242 18.3359 281.508 18.7422 280.695 19.0547C281.508 19.2266 282.258 19.5312 282.945 19.9688C283.633 20.3906 284.219 20.9297 284.703 21.5859C285.188 22.2266 285.562 22.9531 285.828 23.7656C286.109 24.5781 286.25 25.4531 286.25 26.3906ZM276.031 20.9062C275.344 20.9062 274.742 20.9453 274.227 21.0234C273.727 21.0859 273.234 21.1562 272.75 21.2344L271.086 33.3281C271.055 33.4375 271.148 33.5938 271.367 33.7969C271.93 34.0781 272.578 34.2734 273.312 34.3828C274.062 34.4766 274.766 34.5234 275.422 34.5234C276.422 34.5234 277.32 34.3203 278.117 33.9141C278.914 33.5078 279.594 32.9688 280.156 32.2969C280.719 31.6094 281.148 30.8281 281.445 29.9531C281.742 29.0781 281.891 28.1641 281.891 27.2109C281.891 26.4297 281.781 25.6641 281.562 24.9141C281.359 24.1641 281.023 23.4922 280.555 22.8984C280.102 22.3047 279.5 21.8281 278.75 21.4688C278.016 21.0938 277.109 20.9062 276.031 20.9062ZM276.688 7.89844H275.562C275.219 7.89844 274.891 7.90625 274.578 7.92188L273.078 18.8906H273.828C274.828 18.8906 275.805 18.8047 276.758 18.6328C277.711 18.4453 278.555 18.125 279.289 17.6719C280.039 17.2031 280.633 16.5859 281.07 15.8203C281.523 15.0391 281.75 14.0547 281.75 12.8672C281.75 11.9297 281.586 11.1484 281.258 10.5234C280.93 9.88281 280.516 9.375 280.016 9C279.531 8.60937 278.984 8.32812 278.375 8.15625C277.781 7.98438 277.219 7.89844 276.688 7.89844ZM302.023 26.2969C302.117 25.625 302.227 24.9141 302.352 24.1641C302.477 23.4141 302.602 22.6875 302.727 21.9844C302.852 21.2656 302.969 20.6094 303.078 20.0156C303.188 19.4062 303.281 18.8984 303.359 18.4922C303.125 18.2891 302.867 18.0938 302.586 17.9062C302.32 17.7031 302.039 17.5234 301.742 17.3672C301.445 17.1953 301.141 17.0625 300.828 16.9688C300.516 16.8594 300.195 16.8047 299.867 16.8047C299.164 16.8047 298.508 16.9766 297.898 17.3203C297.305 17.6641 296.75 18.1172 296.234 18.6797C295.734 19.2266 295.289 19.8594 294.898 20.5781C294.508 21.2969 294.172 22.0391 293.891 22.8047C293.625 23.5703 293.422 24.3281 293.281 25.0781C293.141 25.8281 293.07 26.5078 293.07 27.1172C293.07 28.0859 293.148 28.9531 293.305 29.7188C293.461 30.4688 293.672 31.1094 293.938 31.6406C294.203 32.1719 294.516 32.5781 294.875 32.8594C295.25 33.1406 295.641 33.2812 296.047 33.2812C296.375 33.2812 296.781 33.0859 297.266 32.6953C297.75 32.3047 298.258 31.7812 298.789 31.125C299.336 30.4688 299.883 29.7266 300.43 28.8984C300.992 28.0547 301.523 27.1875 302.023 26.2969ZM309.758 34.1016C308.414 35.0234 307.266 35.7266 306.312 36.2109C305.375 36.7109 304.656 36.9609 304.156 36.9609C303.875 36.9609 303.594 36.8672 303.312 36.6797C303.031 36.4922 302.766 36.1484 302.516 35.6484C302.281 35.1484 302.078 34.4609 301.906 33.5859C301.75 32.7109 301.664 31.5938 301.648 30.2344C301.227 30.9531 300.719 31.7109 300.125 32.5078C299.547 33.2891 298.93 34.0156 298.273 34.6875C297.617 35.3438 296.945 35.8828 296.258 36.3047C295.57 36.7422 294.906 36.9609 294.266 36.9609C293.734 36.9609 293.172 36.8125 292.578 36.5156C291.984 36.2188 291.43 35.75 290.914 35.1094C290.414 34.4531 289.992 33.6172 289.648 32.6016C289.32 31.5703 289.156 30.3203 289.156 28.8516C289.156 27.6172 289.305 26.4141 289.602 25.2422C289.898 24.0547 290.336 22.9219 290.914 21.8438C291.508 20.7656 292.227 19.7578 293.07 18.8203C293.914 17.8672 294.891 17.0156 296 16.2656C296.422 15.9844 296.883 15.7109 297.383 15.4453C297.898 15.1797 298.43 14.9453 298.977 14.7422C299.539 14.5391 300.102 14.375 300.664 14.25C301.227 14.125 301.781 14.0625 302.328 14.0625C302.656 14.0625 302.977 14.1094 303.289 14.2031C303.602 14.2812 303.906 14.3906 304.203 14.5312C304.5 14.6719 304.789 14.8281 305.07 15C305.352 15.1562 305.617 15.3125 305.867 15.4688C306.273 15.2031 306.703 14.9609 307.156 14.7422C307.609 14.5078 308.047 14.2812 308.469 14.0625L309.031 15.1172C308.766 15.3359 308.547 15.5312 308.375 15.7031C308.203 15.875 308.047 16.0781 307.906 16.3125C307.781 16.5312 307.672 16.8047 307.578 17.1328C307.484 17.4609 307.383 17.8906 307.273 18.4219C307.039 19.5469 306.82 20.6797 306.617 21.8203C306.414 22.9609 306.234 24.0234 306.078 25.0078C305.938 25.9922 305.828 26.8672 305.75 27.6328C305.672 28.3828 305.633 28.9297 305.633 29.2734C305.633 30.8359 305.742 31.9609 305.961 32.6484C306.18 33.3359 306.469 33.6797 306.828 33.6797C307.141 33.6797 307.5 33.6406 307.906 33.5625C308.312 33.4688 308.828 33.2891 309.453 33.0234L309.758 34.1016ZM327.219 16.2188C326.922 16.5781 326.617 16.9297 326.305 17.2734C325.992 17.6016 325.688 17.8984 325.391 18.1641C325.109 18.4141 324.852 18.625 324.617 18.7969C324.383 18.9531 324.203 19.0312 324.078 19.0312C323.859 19.0312 323.625 18.8906 323.375 18.6094C323.125 18.3125 322.836 17.9922 322.508 17.6484C322.195 17.3047 321.828 16.9922 321.406 16.7109C321 16.4141 320.531 16.2656 320 16.2656C319.562 16.2656 319.148 16.3438 318.758 16.5C318.367 16.6406 318.023 16.8438 317.727 17.1094C317.43 17.375 317.188 17.6953 317 18.0703C316.828 18.4453 316.742 18.8594 316.742 19.3125C316.742 19.9219 317.023 20.5234 317.586 21.1172C318.148 21.7109 319.062 22.3047 320.328 22.8984C320.969 23.2109 321.602 23.5625 322.227 23.9531C322.867 24.3281 323.438 24.7734 323.938 25.2891C324.438 25.7891 324.844 26.3672 325.156 27.0234C325.469 27.6641 325.625 28.3984 325.625 29.2266C325.625 30.3047 325.328 31.3203 324.734 32.2734C324.156 33.2109 323.406 34.0312 322.484 34.7344C321.578 35.4219 320.57 35.9609 319.461 36.3516C318.367 36.7578 317.312 36.9609 316.297 36.9609C315.469 36.9609 314.672 36.8438 313.906 36.6094C313.156 36.3906 312.484 36.1172 311.891 35.7891C311.297 35.4453 310.82 35.0781 310.461 34.6875C310.117 34.2812 309.945 33.9141 309.945 33.5859C309.945 33.3984 310.047 33.1172 310.25 32.7422C310.453 32.3672 310.688 31.9922 310.953 31.6172C311.219 31.2266 311.492 30.8906 311.773 30.6094C312.055 30.3281 312.281 30.1875 312.453 30.1875C312.562 30.1875 312.688 30.2969 312.828 30.5156C312.969 30.7188 313.133 30.9844 313.32 31.3125C313.508 31.625 313.734 31.9688 314 32.3438C314.266 32.7031 314.586 33.0469 314.961 33.375C315.336 33.6875 315.773 33.9531 316.273 34.1719C316.789 34.375 317.383 34.4766 318.055 34.4766C318.586 34.4766 319.086 34.3828 319.555 34.1953C320.023 34.0078 320.422 33.75 320.75 33.4219C321.094 33.0938 321.359 32.7109 321.547 32.2734C321.75 31.8203 321.852 31.3359 321.852 30.8203C321.852 30.2422 321.719 29.7109 321.453 29.2266C321.203 28.7422 320.867 28.3047 320.445 27.9141C320.023 27.5078 319.531 27.1406 318.969 26.8125C318.422 26.4844 317.859 26.1797 317.281 25.8984C316.453 25.5078 315.758 25.1094 315.195 24.7031C314.648 24.2969 314.203 23.8828 313.859 23.4609C313.516 23.0391 313.273 22.6016 313.133 22.1484C312.992 21.6797 312.922 21.1953 312.922 20.6953C312.922 19.7109 313.18 18.8125 313.695 18C314.211 17.1875 314.867 16.4922 315.664 15.9141C316.477 15.3203 317.375 14.8672 318.359 14.5547C319.344 14.2266 320.305 14.0625 321.242 14.0625C322.055 14.0625 322.75 14.1562 323.328 14.3438C323.906 14.5312 324.422 14.75 324.875 15C325.328 15.25 325.734 15.4922 326.094 15.7266C326.469 15.9609 326.844 16.125 327.219 16.2188ZM338.727 34.0078C337.258 34.8828 335.961 35.5938 334.836 36.1406C333.727 36.6875 332.797 36.9609 332.047 36.9609C331.516 36.9609 331.078 36.7109 330.734 36.2109C330.406 35.7266 330.242 35.0625 330.242 34.2188C330.242 33.75 330.297 33.0938 330.406 32.25C330.531 31.4062 330.672 30.4766 330.828 29.4609C331 28.4297 331.188 27.3594 331.391 26.25C331.594 25.1406 331.773 24.0859 331.93 23.0859C332.102 22.0859 332.242 21.1953 332.352 20.4141C332.477 19.6328 332.539 19.0469 332.539 18.6562C332.539 18.2969 332.516 18.0156 332.469 17.8125C332.422 17.5938 332.359 17.4375 332.281 17.3438C332.203 17.2344 332.102 17.1641 331.977 17.1328C331.852 17.1016 331.719 17.0859 331.578 17.0859C331.453 17.0859 331.266 17.1172 331.016 17.1797C330.766 17.2266 330.508 17.2891 330.242 17.3672C329.945 17.4453 329.625 17.5391 329.281 17.6484L328.93 16.5469C329.586 16.25 330.266 15.9531 330.969 15.6562C331.688 15.3594 332.359 15.0938 332.984 14.8594C333.625 14.625 334.195 14.4375 334.695 14.2969C335.195 14.1406 335.562 14.0625 335.797 14.0625C336.234 14.0625 336.547 14.2109 336.734 14.5078C336.938 14.8047 337.039 15.3125 337.039 16.0312C337.039 16.4844 336.977 17.1406 336.852 18C336.742 18.8594 336.602 19.8125 336.43 20.8594C336.258 21.9062 336.062 23.0078 335.844 24.1641C335.641 25.3203 335.453 26.4219 335.281 27.4688C335.109 28.5156 334.961 29.4688 334.836 30.3281C334.727 31.1875 334.672 31.8438 334.672 32.2969C334.672 32.7812 334.719 33.1328 334.812 33.3516C334.922 33.5703 335.109 33.6797 335.375 33.6797C335.859 33.6797 336.312 33.6172 336.734 33.4922C337.156 33.3672 337.688 33.1719 338.328 32.9062L338.727 34.0078ZM339.312 6.42188C339.312 6.85938 339.234 7.30469 339.078 7.75781C338.938 8.19531 338.727 8.60156 338.445 8.97656C338.164 9.33594 337.82 9.63281 337.414 9.86719C337.008 10.0859 336.547 10.1953 336.031 10.1953C335.438 10.1953 334.984 10.0391 334.672 9.72656C334.359 9.39844 334.203 8.96875 334.203 8.4375C334.203 8.01562 334.281 7.58594 334.438 7.14844C334.594 6.69531 334.812 6.28906 335.094 5.92969C335.375 5.55469 335.719 5.25 336.125 5.01562C336.531 4.76562 336.992 4.64062 337.508 4.64062C338.102 4.64062 338.547 4.80469 338.844 5.13281C339.156 5.46094 339.312 5.89062 339.312 6.42188ZM359.516 16.8281C359.188 17.0938 358.82 17.3828 358.414 17.6953C358.023 18.0078 357.633 18.2969 357.242 18.5625C356.867 18.8281 356.508 19.0547 356.164 19.2422C355.82 19.4141 355.539 19.5 355.32 19.5C355.133 19.5 354.906 19.3594 354.641 19.0781C354.391 18.7969 354.102 18.4922 353.773 18.1641C353.445 17.8203 353.078 17.5078 352.672 17.2266C352.281 16.9453 351.844 16.8047 351.359 16.8047C350.688 16.8047 350.07 16.9688 349.508 17.2969C348.961 17.6094 348.461 18.0391 348.008 18.5859C347.555 19.1172 347.156 19.7422 346.812 20.4609C346.469 21.1641 346.18 21.9062 345.945 22.6875C345.711 23.4688 345.531 24.2656 345.406 25.0781C345.297 25.875 345.242 26.6406 345.242 27.375C345.242 28.3906 345.344 29.3047 345.547 30.1172C345.766 30.9141 346.055 31.5938 346.414 32.1562C346.789 32.7188 347.234 33.1562 347.75 33.4688C348.266 33.7656 348.828 33.9141 349.438 33.9141C349.766 33.9141 350.156 33.8594 350.609 33.75C351.062 33.625 351.578 33.4297 352.156 33.1641C352.75 32.8828 353.398 32.5156 354.102 32.0625C354.805 31.6094 355.578 31.0391 356.422 30.3516C356.547 30.5234 356.703 30.7344 356.891 30.9844C357.078 31.2344 357.211 31.4219 357.289 31.5469C356.07 32.6562 354.969 33.5625 353.984 34.2656C353 34.9688 352.102 35.5234 351.289 35.9297C350.477 36.3203 349.734 36.5859 349.062 36.7266C348.391 36.8828 347.75 36.9609 347.141 36.9609C346.562 36.9609 345.922 36.8281 345.219 36.5625C344.531 36.2969 343.883 35.8359 343.273 35.1797C342.664 34.5234 342.148 33.6484 341.727 32.5547C341.32 31.4609 341.117 30.0938 341.117 28.4531C341.117 27.4062 341.227 26.3359 341.445 25.2422C341.664 24.1328 342.016 23.0547 342.5 22.0078C343 20.9453 343.641 19.9375 344.422 18.9844C345.219 18.0156 346.195 17.1484 347.352 16.3828C347.789 16.1016 348.281 15.8203 348.828 15.5391C349.375 15.2578 349.945 15.0078 350.539 14.7891C351.133 14.5703 351.727 14.3984 352.32 14.2734C352.93 14.1328 353.508 14.0625 354.055 14.0625C354.742 14.0625 355.352 14.1875 355.883 14.4375C356.43 14.6875 356.922 14.9766 357.359 15.3047C357.797 15.6172 358.188 15.9297 358.531 16.2422C358.891 16.5391 359.219 16.7344 359.516 16.8281Z" fill="#DC0723"/>
</svg>
