<svg viewBox="0 0 501 80" fill="none" xmlns="http://www.w3.org/2000/svg">
<path d="M128.44 10.3259H114.892L120.703 17.9537L108.776 32.1571V10.3259L98.2479 21.5512V31.383L91.4353 38.1955H98.1705V59.6396L105.293 53.6012V15.5128L107.693 12.8032V56.8527L95.9254 66.0651H108.854L108.776 40.4406L121.008 66.0651H124.956L130.762 57.6268H126.892L112.761 29.0291L128.44 10.3259ZM97.8608 18.1449L105.06 10.3259H91.3579L97.8608 18.1449Z" fill="#0E1112"/>
<path d="M134.655 66.065H146.19L152.383 58.9428H142.087V52.7495L155.557 37.8858L144.797 25.809L134.655 35.4085V66.065ZM142.087 51.1238V30.9958L149.596 42.8404L142.087 51.1238Z" fill="#0E1112"/>
<path d="M158.394 66.0651H165.671V36.3375L170.471 31.8474L173.645 35.0215V66.0651H180.922L184.715 59.0203L180.69 58.8654V31.5378L175.425 25.6542L165.671 34.7892V25.7316L158.394 33.0086V66.0651Z" fill="#0E1112"/>
<path d="M188.66 66.065H195.782L202.517 60.4911V73.8066H193.382L189.279 79.9998H199.188L209.872 67.923V25.809L202.594 33.1634V58.9428H195.937V25.809L188.66 33.1634V66.065Z" fill="#0E1112"/>
<path d="M215.422 66.065H223.474L236.092 53.6785V33.4731L227.112 25.809L215.422 37.6535V66.065ZM222.699 59.4073V31.77L229.047 37.0342V59.4073H222.699Z" fill="#0E1112"/>
<path d="M241.732 66.0651H249.009V36.3375L253.809 31.8474L256.983 35.0215V66.0651H264.26L268.053 59.0203L264.028 58.8654V31.5378L258.763 25.6542L249.009 34.7892V25.7316L241.732 33.0086V66.0651Z" fill="#0E1112"/>
<path d="M295.227 66.065H309.936L317.6 54.7624L316.749 54.0656L313.884 58.2461H306.452V15.9772L315.046 24.4929L319.768 19.2286L310.865 10.171L295.227 25.1122V33.8602L289.111 39.8986H295.227V41.6791L289.111 47.9498H295.227V66.065ZM303.278 58.2461V18.7642L305.369 16.6739V58.2461H303.278Z" fill="#0E1112"/>
<path d="M323.067 66.0651H331.119L343.737 53.6787V33.4732L334.757 25.8091L323.067 37.6536V66.0651ZM330.344 59.4074V31.7701L336.693 37.0343V59.4074H330.344Z" fill="#0E1112"/>
<path d="M350.538 66.0651H357.66L362.538 58.7881H357.815V10.3259L350.538 17.2933V66.0651Z" fill="#0E1112"/>
<path d="M365.532 66.0651H372.654L377.532 58.7881H372.809V10.3259L365.532 17.2933V66.0651Z" fill="#0E1112"/>
<path d="M380.527 66.0651H392.062L398.255 58.9429H387.959V52.7497L401.429 37.8859L390.668 25.8091L380.527 35.4086V66.0651ZM387.959 51.124V30.9959L395.468 42.8405L387.959 51.124Z" fill="#0E1112"/>
<path d="M404.583 66.0651H411.55L418.208 61.0331V74.039H410.157L404.97 79.9999H415.421L425.253 68.1554V35.4086L415.189 25.8091L404.583 36.9569V66.0651ZM411.86 59.4074V31.9249L418.131 37.7311V59.4074H411.86Z" fill="#0E1112"/>
<path d="M430.892 25.3446L438.169 19.0739V10.3259L430.892 16.9062V25.3446ZM430.892 66.0651L442.737 59.6396H438.169V25.6542L430.892 32.1571V66.0651Z" fill="#0E1112"/>
<path d="M445.887 66.0651H453.009L459.202 59.6397V66.0651H466.015L470.35 59.2526H466.17V34.1699L458.351 25.8091L445.964 36.4924H453.164V31.1508L458.428 36.8795L445.887 48.2596V66.0651ZM453.164 59.1752V43.1502L459.28 37.6536V59.1752H453.164Z" fill="#0E1112"/>
<path d="M473.885 66.0651H481.162V36.3375L485.962 31.8474L489.136 35.0215V66.0651H496.413L500.206 59.0203L496.18 58.8654V31.5378L490.916 25.6542L481.162 34.7892V25.7316L473.885 33.0086V66.0651Z" fill="#0E1112"/>
<path d="M135.744 19.6159H141.596L142.924 17.4211L141.542 17.3941V2.62705H143.954L145.498 0.10717H135.852L133.847 2.68124H138.833L137.803 3.90055V8.53385L135.744 10.7828H137.803V17.3669L135.744 19.6159ZM138.995 17.3941L140.35 16.1206V2.59997H141.163V17.3941H138.995Z" fill="#0E1112"/>
<path d="M145.505 19.6158H148.052V9.21112L149.705 7.61249L150.843 8.75052V19.6158H153.39L154.717 17.1501L153.308 17.0959V7.53121L151.412 5.41774L148.052 8.6692V0.107048L145.505 2.68112V19.6158Z" fill="#0E1112"/>
<path d="M155.719 19.6157H159.756L161.924 17.1229H158.32V14.9553L163.035 9.75302L159.268 5.52612L155.719 8.88597V19.6157ZM158.32 14.3863V7.34153L160.948 11.4871L158.32 14.3863Z" fill="#0E1112"/>
<path d="M19.869 12.8584V14.354L24.3336 16.5789V12.8584H19.869ZM22.4734 52.0584V57.5821H20.9511V50.3633L22.4737 48.3848L22.4734 52.0584ZM24.3336 40.0787L22.4734 41.9154H24.3336V40.0787ZM19.869 40.0787L18.0087 41.9154H19.869V40.0787ZM19.869 20.8343L18.0087 22.4115V38.6794L19.869 37.1022V20.8343ZM24.3336 20.8343L22.4734 22.4115V38.6794L24.3336 37.1022V20.8343ZM29.8458 0L27.2923 2.77443L26.6092 3.51568V8.75207H12.352L2.23233 19.5417L2.15822 62.5431L9.00346 56.7385V20.1288L11.3099 17.5244V59.8646L0 68.7185H12.4261L12.3607 16.3385L12.352 15.2049V9.86824H30.6975L28.8038 11.3695V68.7185L32.1523 66.0647H68.6852L55.6269 53.0063H32.1523V8.71569L32.0782 8.77383V8.75203H29.7325L29.8459 8.71569V2.77443H31.1103V8.71569H32.1523V2.77443L29.8458 0Z" fill="#0E1112"/>
</svg>
